<svg width="1220" height="717" viewBox="0 0 1220 717" fill="none" xmlns="http://www.w3.org/2000/svg">
<path d="M84.5495 157.258C39.1715 33.3523 318.246 -47.1866 340.935 33.3523C363.624 113.891 492.952 436.047 728.917 260.513C964.883 84.9796 1078.33 60.1984 1089.67 200.625C1101.02 341.052 1119.17 415.396 1219 322.466" stroke="#E16372"/>
<path d="M39.1714 361.703C41.4403 281.164 154.885 448.437 279.675 405.07C404.464 361.703 456.649 419.525 334.128 528.976C211.608 638.427 828.749 698.314 871.858 551.692C914.967 405.07 1046.56 537.236 1082.87 671.468C1119.17 805.7 1160.01 528.976 1200.85 652.882" stroke="#E16372"/>
<path d="M40.1812 188.356C20.399 128.178 72.3792 80.7719 131.884 55.8511C191.389 30.9303 257.686 31.4848 266.518 71.1481C285.251 149.425 403.508 458.911 609.825 289.188C816.142 119.465 916.3 96.9697 926.518 232.911C936.736 368.851 952.934 437.485 1040.42 349.564" stroke="#E16372"/>
<path d="M39.7168 189.718C20.1525 129.362 72.6129 84.0501 132.623 58.9585C192.633 33.8669 258.727 34.9758 266.39 75.3026C283.855 153.857 406.37 460.828 611.004 291.382C815.638 121.936 915.955 100.946 926.39 236.827C936.826 372.709 953.222 437.976 1040.19 352.134" stroke="#E16372"/>
<path d="M39.2545 191.086C19.908 130.551 72.8485 87.3333 133.363 62.0709C193.878 36.8085 259.769 38.4719 266.264 79.462C282.462 158.294 409.235 462.749 612.185 293.581C815.136 124.412 915.611 104.927 926.265 240.749C936.918 376.571 953.512 438.472 1039.97 354.71" stroke="#E16372"/>
<path d="M38.7939 192.459C19.6652 131.746 73.0859 90.622 134.106 65.1888C195.126 39.7557 260.814 41.9735 266.14 83.627C281.071 162.736 412.101 464.677 613.368 295.785C814.636 126.894 915.27 108.914 926.141 244.677C937.012 380.439 953.804 438.974 1039.74 357.29" stroke="#E16372"/>
<path d="M38.3355 193.837C19.4246 132.945 73.3255 93.9158 134.85 68.3118C196.375 42.7079 261.86 45.4801 266.019 87.797C279.682 167.183 414.969 466.609 614.553 297.995C814.138 129.381 914.93 112.906 926.019 248.609C937.108 384.312 954.098 439.48 1039.52 359.876" stroke="#E16372"/>
<path d="M37.8789 195.219C19.1859 134.15 73.567 97.2144 135.597 71.4396C197.626 45.6649 262.909 48.9916 265.899 91.9718C278.295 171.635 417.839 468.546 615.74 300.209C813.642 131.873 914.592 116.902 925.899 252.546C937.206 388.19 954.394 439.992 1039.3 362.467" stroke="#E16372"/>
<path d="M37.4243 196.607C18.9491 135.359 73.8105 100.518 136.345 74.5721C198.88 48.6266 263.959 52.5077 265.781 96.1513C276.91 176.092 420.711 470.488 616.929 302.429C813.147 134.369 914.256 120.904 925.781 256.488C937.305 392.072 954.692 440.508 1039.09 365.062" stroke="#E16372"/>
<path d="M36.9716 197.999C18.7142 136.573 74.0557 103.825 137.095 77.7091C200.135 51.5928 265.011 56.0284 265.665 100.335C275.526 180.553 423.585 472.435 618.12 304.652C812.655 136.87 913.922 124.909 925.665 260.434C937.407 395.959 954.991 441.029 1038.87 367.662" stroke="#E16372"/>
<path d="M36.5207 199.395C18.4811 137.791 74.3029 107.137 137.847 80.8503C201.392 54.5632 266.065 59.5533 265.55 104.524C274.145 185.019 426.461 474.385 619.313 306.88C812.165 139.375 913.59 128.919 925.551 264.385C937.511 399.851 955.293 441.554 1038.66 370.266" stroke="#E16372"/>
<path d="M36.0714 200.795C18.2496 139.013 74.5516 110.454 138.601 83.9957C202.651 57.5378 267.121 63.0823 265.438 108.716C272.765 189.488 429.339 476.34 620.507 309.112C811.676 141.884 913.26 132.934 925.438 268.34C937.616 403.746 955.596 442.083 1038.45 372.874" stroke="#E16372"/>
<path d="M35.6242 202.2C18.0202 140.239 74.8024 113.774 139.357 87.1451C203.911 60.5163 268.179 66.6153 265.327 112.912C271.387 193.962 432.218 478.299 621.703 311.348C811.189 144.397 912.931 136.952 925.327 272.299C937.723 407.645 955.901 442.616 1038.24 375.487" stroke="#E16372"/>
<path d="M35.1787 203.607C17.7925 141.469 75.0549 117.097 140.114 90.2979C205.174 63.4984 269.238 70.1519 265.218 117.112C270.01 198.439 435.099 480.261 622.902 313.588C810.704 146.914 912.605 140.973 925.218 276.261C937.832 411.548 956.208 443.152 1038.03 378.102" stroke="#E16372"/>
<path d="M34.735 205.019C17.5666 142.703 75.3092 120.425 140.874 93.455C206.438 66.4847 270.299 73.6926 265.111 121.316C268.636 202.92 437.982 482.227 624.101 315.831C810.22 149.435 912.28 144.999 925.111 280.227C937.943 415.455 956.517 443.693 1037.82 380.722" stroke="#E16372"/>
<path d="M34.293 206.434C17.3425 143.939 75.5652 123.756 141.635 96.6151C207.704 69.474 271.362 77.2363 265.006 125.523C267.263 207.405 440.867 484.197 625.303 318.078C809.739 151.959 911.957 149.028 925.006 284.197C938.055 419.365 956.828 444.237 1037.62 383.345" stroke="#E16372"/>
<path d="M33.8527 207.853C17.12 145.18 75.823 127.091 142.397 99.779C208.971 72.4671 272.427 80.7839 264.902 129.734C265.892 211.893 443.754 486.17 626.506 320.329C809.259 154.487 911.635 153.061 924.902 288.17C938.169 423.279 957.14 444.784 1037.42 385.972" stroke="#E16372"/>
<path d="M33.4139 209.275C16.899 146.423 76.0822 130.428 143.161 102.946C210.241 75.463 273.493 84.3342 264.8 133.948C264.523 216.384 446.641 488.146 627.711 322.582C808.781 157.017 911.315 157.096 924.8 292.146C938.285 427.196 957.453 445.335 1037.22 388.602" stroke="#E16372"/>
<path d="M32.977 210.7C16.6799 147.67 76.3433 133.769 143.927 106.116C211.512 78.4625 274.561 87.8882 264.7 138.166C263.155 220.878 449.531 490.126 628.918 324.839C808.304 159.552 910.997 161.136 924.7 296.126C938.403 431.116 957.769 445.888 1037.02 391.235" stroke="#E16372"/>
<path d="M32.5417 212.128C16.4625 148.92 76.606 137.113 144.695 109.289C212.784 81.4646 275.631 91.4447 264.601 142.385C261.789 225.376 452.423 492.108 630.126 327.098C807.829 162.088 910.681 165.177 924.601 300.108C938.522 435.039 958.086 446.445 1036.82 393.87" stroke="#E16372"/>
<path d="M32.1081 213.559C16.2467 150.173 76.8704 140.46 145.464 112.465C214.059 84.4698 276.702 95.0043 264.504 146.608C260.425 229.876 455.316 494.094 631.336 329.361C807.356 164.628 910.366 169.222 924.504 304.094C938.643 438.965 958.405 447.005 1036.62 396.509" stroke="#E16372"/>
<path d="M31.6761 214.993C16.0325 151.428 77.1364 143.809 146.235 115.644C215.334 87.4777 277.775 98.5667 264.409 150.834C259.062 234.379 458.211 496.082 632.547 331.626C806.884 167.171 910.053 173.27 924.409 308.082C938.765 442.894 958.725 447.567 1036.43 399.151" stroke="#E16372"/>
<path d="M31.2456 216.429C15.8199 152.686 77.404 147.162 147.008 118.825C216.612 90.4884 278.85 102.132 264.315 155.063C257.701 238.885 461.107 498.073 633.761 333.894C806.414 169.716 909.741 177.32 924.315 312.073C938.889 446.825 959.048 448.132 1036.24 401.795" stroke="#E16372"/>
<path d="M30.8168 217.868C15.6089 153.947 77.6732 150.516 147.782 122.009C217.891 93.5016 279.926 105.699 264.223 159.294C256.342 243.393 464.005 500.066 634.975 336.165C805.946 172.264 909.431 181.373 924.223 316.066C939.015 450.759 959.371 448.7 1036.04 404.442" stroke="#E16372"/>
<path d="M30.3892 219.309C15.3991 155.21 77.9437 153.874 148.558 125.195C219.171 96.5173 281.003 109.27 264.132 163.527C254.983 247.904 466.904 502.062 636.191 338.438C805.479 174.814 909.122 185.428 924.132 320.062C939.142 454.696 959.696 449.27 1035.85 407.091" stroke="#E16372"/>
<path d="M29.9635 220.753C15.1912 156.476 78.2159 157.233 149.335 128.384C220.454 99.5354 282.082 112.842 264.043 167.763C253.627 252.417 469.805 504.06 637.409 340.714C805.013 177.367 908.815 189.486 924.043 324.06C939.27 458.635 960.023 449.842 1035.67 409.743" stroke="#E16372"/>
<path d="M29.5392 222.199C14.9848 157.744 78.4897 160.595 150.113 131.576C221.737 102.556 283.163 116.417 263.955 172.001C252.272 256.932 472.707 506.061 638.628 342.991C804.549 179.922 908.51 193.546 923.955 328.061C939.401 462.576 960.351 450.417 1035.48 412.397" stroke="#E16372"/>
<path d="M29.1165 223.648C14.7798 159.014 78.7649 163.96 150.894 134.769C223.022 105.578 284.245 119.994 263.869 176.242C250.918 261.45 475.611 508.064 639.849 345.272C804.087 182.479 908.206 197.608 923.869 332.064C939.532 466.519 960.681 450.994 1035.29 415.054" stroke="#E16372"/>
<path d="M28.6952 225.098C14.5764 160.286 79.0417 167.326 151.675 137.964C224.309 108.603 285.329 123.573 263.784 180.484C249.566 265.969 478.517 510.068 641.072 347.553C803.626 185.038 907.903 201.672 923.784 336.068C939.665 470.465 961.012 451.573 1035.11 417.712" stroke="#E16372"/>
<path d="M28.2754 226.551C14.3744 161.561 79.3199 170.694 152.459 141.162C225.597 111.63 286.414 127.155 263.701 184.729C248.216 270.492 481.424 512.076 642.295 349.838C803.167 187.6 907.602 205.739 923.701 340.076C939.8 474.413 961.345 452.155 1034.93 420.373" stroke="#E16372"/>
<path d="M27.8568 228.005C14.1736 162.837 79.5993 174.065 153.243 144.362C226.886 114.659 287.5 130.738 263.619 188.975C246.867 275.015 484.332 514.085 643.52 352.124C802.708 190.163 907.303 209.807 923.619 344.084C939.936 478.362 961.678 452.738 1034.75 423.035" stroke="#E16372"/>
<path d="M27.4398 229.462C13.9745 164.115 79.8804 177.437 154.029 147.563C228.177 117.69 288.588 134.323 263.539 193.224C245.519 279.541 487.242 516.096 644.747 354.412C802.252 192.729 907.004 213.877 923.539 348.096C940.073 482.314 962.014 453.324 1034.57 425.7" stroke="#E16372"/>
<path d="M27.0243 230.92C13.7768 165.395 80.1629 180.811 154.816 150.767C229.47 120.722 289.678 137.91 263.46 197.475C244.173 284.069 490.153 518.108 645.975 356.702C801.797 195.296 906.708 217.949 923.46 352.108C940.212 486.267 962.351 453.91 1034.39 428.366" stroke="#E16372"/>
<path d="M26.6102 232.381C13.5805 166.678 80.4468 184.187 155.605 153.972C230.764 123.757 290.769 141.499 263.382 201.727C242.828 288.599 493.066 520.123 647.204 358.994C801.343 197.866 906.412 222.024 923.383 356.123C940.353 490.222 962.689 454.499 1034.21 431.034" stroke="#E16372"/>
<path d="M26.1974 233.842C13.3855 167.961 80.732 187.565 156.395 157.179C232.059 126.793 291.861 145.09 263.306 205.981C241.485 293.129 495.98 522.139 648.435 361.288C800.891 200.436 906.118 226.099 923.306 360.139C940.494 494.179 963.029 455.09 1034.04 433.704" stroke="#E16372"/>
<path d="M25.786 235.306C13.192 169.246 81.0187 190.944 157.187 160.387C233.355 129.831 292.954 148.682 263.232 210.236C240.142 297.662 498.895 524.157 649.667 363.583C800.44 203.009 905.826 230.177 923.232 364.157C940.637 498.138 963.37 455.682 1033.87 436.375" stroke="#E16372"/>
<path d="M25.3757 236.771C12.9995 170.533 81.3064 194.325 157.98 163.598C234.653 132.87 294.049 152.276 263.158 214.494C238.802 302.197 501.811 526.177 650.901 365.88C799.99 205.583 905.534 234.256 923.158 368.177C940.782 502.098 963.712 456.276 1033.69 439.048" stroke="#E16372"/>
<path d="M24.967 238.238C12.8086 171.822 81.5957 197.708 158.774 166.81C235.952 135.911 295.145 155.871 263.086 218.753C237.462 306.733 504.729 528.198 652.135 368.178C799.542 208.158 905.245 238.336 923.086 372.198C940.927 506.06 964.056 456.872 1033.52 441.723" stroke="#E16372"/>
<path d="M24.5596 239.706C12.6191 173.112 81.8864 201.092 159.57 170.023C237.253 138.954 296.243 159.468 263.015 223.013C236.124 311.271 507.649 530.221 653.372 370.478C799.095 210.736 904.956 242.419 923.015 376.221C941.074 510.023 964.401 457.469 1033.35 444.399" stroke="#E16372"/>
<path d="M24.1536 241.176C12.4308 174.404 82.1783 204.478 160.366 173.238C238.555 141.998 297.342 163.067 262.946 227.275C234.787 315.81 510.569 532.245 654.609 372.78C798.649 213.314 904.669 246.502 922.946 380.245C941.223 513.988 964.748 458.067 1033.18 447.077" stroke="#E16372"/>
<path d="M23.7488 242.647C12.2438 175.696 82.4715 207.865 161.165 176.454C239.858 145.043 298.442 166.667 262.877 231.538C233.452 320.35 513.491 534.271 655.848 375.083C798.204 215.894 904.383 250.587 922.878 384.271C941.372 517.954 965.095 458.667 1033.02 449.756" stroke="#E16372"/>
<path d="M23.3452 244.119C12.0581 176.991 82.766 211.253 161.964 179.671C241.162 148.09 299.543 170.268 262.811 235.802C232.118 324.892 516.414 536.298 657.088 377.387C797.761 218.476 904.098 254.673 922.811 388.297C941.523 521.922 965.444 459.268 1032.85 452.436" stroke="#E16372"/>
<path d="M22.943 245.593C11.8737 178.286 83.0618 214.643 162.765 182.89C242.468 151.138 300.646 173.87 262.745 240.069C230.785 329.435 519.339 538.326 658.329 379.692C797.319 221.059 903.815 258.761 922.745 392.326C941.676 525.891 965.794 459.871 1032.69 455.118" stroke="#E16372"/>
<path d="M22.5417 247.068C11.6902 179.583 83.3585 218.034 163.566 186.11C243.774 154.187 301.75 177.474 262.68 244.336C229.453 333.979 522.264 540.356 659.572 381.999C796.879 223.642 903.532 262.85 922.68 396.355C941.829 529.861 966.146 460.474 1032.52 457.801" stroke="#E16372"/>
<path d="M22.1419 248.545C11.5083 180.882 83.6568 221.426 164.37 189.332C245.082 157.238 302.855 181.079 262.617 248.604C228.122 338.525 525.191 542.387 660.815 384.307C796.439 226.228 903.251 266.941 922.617 400.387C941.983 533.832 966.498 461.08 1032.36 460.486" stroke="#E16372"/>
<path d="M21.7434 250.022C11.3275 182.181 83.9562 224.819 165.174 192.554C246.392 160.29 303.961 184.685 262.555 252.874C226.793 343.072 528.12 544.419 662.06 386.616C796.001 228.814 902.971 271.032 922.555 404.418C942.139 537.805 966.852 461.686 1032.2 463.171" stroke="#E16372"/>
<path d="M21.346 251.501C11.148 183.482 84.2569 228.214 165.98 195.779C247.702 163.343 305.069 188.293 262.495 257.145C225.465 347.62 531.049 546.452 663.306 388.927C795.564 231.402 902.693 275.125 922.495 408.452C942.296 541.779 967.207 462.294 1032.04 465.858" stroke="#E16372"/>
<path d="M20.9498 252.981C10.9696 184.783 84.5587 231.61 166.786 199.003C249.014 166.397 306.178 191.902 262.435 261.417C224.138 352.169 533.98 548.486 664.554 391.238C795.128 233.991 902.415 279.218 922.435 412.486C942.455 545.754 967.564 462.902 1031.88 468.545" stroke="#E16372"/>
<path d="M20.5549 254.462C10.7925 186.086 84.8618 235.007 167.594 202.229C250.327 169.452 307.287 195.511 262.377 265.69C222.812 356.72 536.911 550.522 665.802 393.551C794.694 236.581 902.139 283.313 922.377 416.521C942.614 549.73 967.921 463.512 1031.72 471.234" stroke="#E16372"/>
<path d="M20.1608 255.944C10.6162 187.39 85.1657 238.404 168.403 205.456C251.641 172.508 308.398 199.122 262.319 269.964C221.488 361.271 539.844 552.558 667.052 395.865C794.26 239.172 901.864 287.409 922.319 420.558C942.775 553.707 968.28 464.122 1031.57 473.924" stroke="#E16372"/>
<path d="M19.7681 257.427C10.4414 188.695 85.4711 241.803 169.214 208.685C252.956 175.566 309.511 202.734 262.263 274.239C220.164 365.824 542.778 554.596 668.303 398.18C793.828 241.764 901.59 291.506 922.263 424.596C942.936 557.685 968.639 464.734 1031.41 476.615" stroke="#E16372"/>
<path d="M19.3766 258.911C10.2677 190 85.7776 245.203 170.025 211.914C254.273 178.624 310.624 206.347 262.208 278.515C218.842 370.377 545.713 556.634 669.555 400.496C793.397 244.357 901.317 295.604 922.208 428.634C943.099 561.664 969 465.347 1031.26 479.307" stroke="#E16372"/>
<path d="M18.9862 260.396C10.0951 191.307 86.0852 248.604 170.838 215.144C255.59 181.684 311.739 209.961 262.154 282.792C217.521 374.931 548.65 558.674 670.808 402.812C792.967 246.951 901.046 299.703 922.155 432.674C943.263 565.644 969.362 465.961 1031.11 482" stroke="#E16372"/>
<path d="M18.5969 261.882C9.92365 192.615 86.3939 252.006 171.651 218.375C256.909 184.744 312.854 213.575 262.102 287.071C216.201 379.487 551.587 560.714 672.062 405.13C792.538 249.546 900.775 303.803 922.102 436.714C943.429 569.625 969.726 466.576 1030.95 484.694" stroke="#E16372"/>
<path d="M18.2087 263.369C9.75329 193.924 86.7038 255.409 172.466 221.607C258.229 187.805 313.971 217.191 262.05 291.35C214.882 384.043 554.525 562.756 673.318 407.449C792.11 252.142 900.506 307.904 922.05 440.756C943.595 573.607 970.09 467.191 1030.8 487.389" stroke="#E16372"/>
<path d="M17.8214 264.857C9.58379 195.233 87.0145 258.813 173.282 224.84C259.549 190.867 315.089 220.807 262 295.63C213.564 388.6 557.465 564.798 674.574 409.768C791.683 254.738 900.237 312.005 922 444.798C943.762 577.59 970.455 467.808 1030.65 490.085" stroke="#E16372"/>
<path d="M17.4354 266.346C9.41561 196.544 87.3265 262.217 174.099 228.073C260.871 193.93 316.208 224.425 261.95 299.91C212.247 393.158 560.406 566.841 675.832 412.088C791.257 257.336 899.97 316.108 921.95 448.841C943.93 581.574 970.821 468.425 1030.5 492.781" stroke="#E16372"/>
<path d="M17.0505 267.836C9.2485 197.855 87.6396 265.623 174.917 231.308C262.194 196.994 317.328 228.043 261.902 304.192C210.932 397.717 563.347 568.885 677.09 414.41C790.833 259.934 899.704 320.211 921.902 452.885C944.1 585.559 971.189 469.044 1030.36 495.479" stroke="#E16372"/>
<path d="M16.6666 269.326C9.08246 199.167 87.9537 269.029 175.736 234.543C263.518 200.058 318.449 231.662 261.855 308.474C209.617 402.276 566.29 570.93 678.35 416.732C790.409 262.533 899.439 324.315 921.855 456.93C944.271 589.544 971.558 469.662 1030.21 498.177" stroke="#E16372"/>
<path d="M16.2838 270.817C8.91746 200.48 88.2689 272.436 176.556 237.78C264.843 203.124 319.571 235.282 261.809 312.758C208.304 406.837 569.234 572.976 679.611 419.055C789.987 265.134 899.175 328.421 921.809 460.975C944.442 593.53 971.927 470.283 1030.07 500.876" stroke="#E16372"/>
<path d="M15.902 272.309C8.75349 201.794 88.5852 275.843 177.377 241.017C266.169 206.19 320.694 238.902 261.763 317.041C206.991 411.398 572.179 575.022 680.872 421.378C789.566 267.734 898.912 332.526 921.763 465.022C944.615 597.517 972.298 470.903 1029.92 503.576" stroke="#E16372"/>
<path d="M15.521 273.802C8.59031 203.109 88.9022 279.252 178.199 244.255C267.496 209.257 321.818 242.524 261.719 321.326C205.679 415.96 575.125 577.069 682.135 423.703C789.145 270.336 898.65 336.633 921.719 469.069C944.788 601.505 972.669 471.525 1029.78 506.277" stroke="#E16372"/>
<path d="M15.1413 275.295C8.42839 204.424 89.2205 282.661 179.022 247.493C268.824 212.325 322.943 246.146 261.676 325.612C204.369 420.523 578.072 579.117 683.399 426.028C788.726 272.938 898.389 340.74 921.676 473.117C944.963 605.493 973.042 472.146 1029.64 508.978" stroke="#E16372"/>
<path d="M14.7625 276.789C8.26748 205.739 89.5398 286.071 179.847 250.732C270.154 215.393 324.069 249.769 261.634 329.898C203.06 425.086 581.02 581.165 684.664 428.353C788.307 275.541 898.129 344.848 921.634 477.165C945.139 609.482 973.416 472.769 1029.5 511.68" stroke="#E16372"/>
<path d="M14.3848 278.284C8.10756 207.056 89.86 289.482 180.672 253.972C271.484 218.462 325.197 253.392 261.593 334.185C201.751 429.65 583.969 583.215 685.929 430.68C787.89 278.145 897.87 348.957 921.593 481.214C945.315 613.472 973.791 473.393 1029.36 514.383" stroke="#E16372"/>
<path d="M14.008 279.779C7.94863 208.373 90.1813 292.893 181.498 257.212C272.815 221.532 326.325 257.017 261.553 338.472C200.444 434.215 586.919 585.265 687.196 433.007C787.474 280.749 897.612 353.066 921.553 485.264C945.493 617.463 974.166 474.017 1029.22 517.086" stroke="#E16372"/>
<path d="M13.6323 281.275C7.79067 209.691 90.5035 296.305 182.325 260.454C274.147 224.602 327.454 260.641 261.513 342.761C199.137 438.781 589.87 587.315 688.464 435.335C787.058 283.355 897.355 357.176 921.513 489.315C945.672 621.454 974.543 474.642 1029.08 519.79" stroke="#E16372"/>
<path d="M13.2574 282.772C7.63368 211.01 90.8267 299.718 183.153 263.695C275.48 227.673 328.584 264.267 261.475 347.049C197.832 443.347 592.822 589.366 689.733 437.663C786.644 285.96 897.099 361.287 921.475 493.366C945.851 625.446 974.921 475.267 1028.94 522.495" stroke="#E16372"/>
<path d="M12.8833 284.27C7.4774 212.329 91.1507 303.131 183.982 266.938C276.814 230.745 329.715 267.893 261.438 351.339C196.527 447.914 595.774 591.418 691.002 439.992C786.23 288.567 896.844 365.398 921.438 497.418C946.032 629.438 975.299 475.893 1028.8 525.2" stroke="#E16372"/>
<path d="M12.5104 285.768C7.32231 213.649 91.4758 306.545 184.812 270.181C278.149 233.817 330.847 271.52 261.402 355.629C195.223 452.481 598.728 593.471 692.273 442.322C785.817 291.174 896.59 369.51 921.402 501.471C946.213 633.431 975.679 476.52 1028.67 527.906" stroke="#E16372"/>
<path d="M12.1385 287.577C7.16816 215.28 91.8018 310.27 185.643 273.736C279.485 237.201 331.98 275.458 261.366 360.231C193.921 457.36 601.683 595.835 693.544 444.963C785.406 294.092 896.337 373.933 921.366 505.835C946.396 637.736 976.059 477.459 1028.53 530.924" stroke="#E16372"/>
<path d="M11.7674 290.514C7.01493 218.039 92.1288 315.123 186.475 278.418C280.822 241.713 333.114 280.524 261.332 365.96C192.619 463.366 604.639 599.326 694.817 448.732C784.995 298.138 896.084 379.484 921.332 511.326C946.579 643.168 976.441 479.524 1028.4 535.069" stroke="#E16372"/>
<path d="M11.3973 293.463C6.86262 220.809 92.4567 319.987 187.308 283.111C282.16 246.235 334.249 285.601 261.298 371.7C191.318 469.384 607.595 602.829 696.09 452.512C784.586 302.195 895.833 385.046 921.298 516.829C946.764 648.612 976.823 481.601 1028.27 539.225" stroke="#E16372"/>
<path d="M11.0281 296.42C6.71123 223.588 92.7855 324.861 188.142 287.814C283.498 250.767 335.384 290.687 261.266 377.45C190.018 475.41 610.553 606.341 697.365 456.301C784.177 306.262 895.583 390.617 921.266 522.341C946.949 654.064 977.206 483.687 1028.14 543.39" stroke="#E16372"/>
<path d="M10.6595 299.387C6.56048 226.377 93.1149 329.744 188.976 292.526C284.838 255.308 336.521 295.783 261.234 383.209C188.719 481.447 613.511 609.863 698.64 460.1C783.768 310.338 895.333 396.199 921.234 527.862C947.135 659.526 977.59 485.783 1028.01 547.565" stroke="#E16372"/>
<path d="M10.2921 302.363C6.41087 229.175 93.4455 334.635 189.812 297.247C286.178 259.858 337.658 300.887 261.203 388.977C187.421 487.492 616.47 613.393 699.916 463.908C783.361 314.422 895.084 401.788 921.203 533.393C947.322 664.997 977.975 487.888 1027.88 551.749" stroke="#E16372"/>
<path d="M9.92552 305.348C6.26215 231.981 93.777 339.536 190.648 301.976C287.52 264.417 338.797 306.001 261.173 394.754C186.124 493.546 619.43 616.932 701.193 467.724C782.955 318.516 894.837 407.387 921.173 538.932C947.51 670.477 978.361 490.001 1027.75 555.942" stroke="#E16372"/>
<path d="M9.55984 308.34C6.1143 234.795 94.1093 344.444 191.486 306.714C288.862 268.983 339.936 311.122 261.144 400.538C184.827 499.608 622.391 620.479 702.471 471.548C782.55 322.617 894.59 412.993 921.144 544.478C947.698 675.964 978.748 492.122 1027.62 560.142" stroke="#E16372"/>
<path d="M9.19504 311.34C5.96731 237.617 94.4425 349.36 192.324 311.459C290.205 273.558 341.076 316.251 261.116 406.33C183.532 505.677 625.353 624.033 703.75 475.38C782.146 326.726 894.344 418.607 921.116 550.033C947.888 681.459 979.136 494.251 1027.49 564.35" stroke="#E16372"/>
<path d="M8.83108 314.348C5.82118 240.447 94.7766 354.283 193.163 316.212C291.549 278.14 342.217 321.387 261.089 412.13C182.237 511.754 628.316 627.595 705.029 479.219C781.742 330.843 894.099 424.228 921.089 555.595C948.079 686.962 979.524 496.387 1027.37 568.566" stroke="#E16372"/>
<path d="M8.46774 317.362C5.67566 243.283 95.1113 359.214 194.002 320.971C292.893 282.729 343.359 326.53 261.062 417.937C180.943 517.838 631.28 631.165 706.309 483.065C781.339 334.966 893.854 429.857 921.062 561.164C948.27 692.472 979.913 498.531 1027.24 572.788" stroke="#E16372"/>
<path d="M8.10548 320.384C5.53122 246.126 95.4471 364.151 194.843 325.738C294.239 287.324 344.502 331.681 261.036 423.75C179.65 523.929 634.244 634.74 707.591 486.919C780.937 339.097 893.611 435.492 921.036 566.74C948.462 697.988 980.303 500.681 1027.12 577.018" stroke="#E16372"/>
<path d="M7.74405 323.412C5.38761 248.976 95.7836 369.095 195.685 330.511C295.586 291.927 345.645 336.837 261.011 429.57C178.358 530.026 637.209 638.323 708.873 490.778C780.536 343.234 893.368 441.134 921.011 572.323C948.655 703.511 980.694 502.838 1026.99 581.253" stroke="#E16372"/>
<path d="M7.38344 326.446C5.24483 251.832 96.1211 374.045 196.527 335.29C296.933 296.535 346.789 342 260.987 435.396C177.067 536.13 640.176 641.911 710.156 494.644C780.136 347.377 893.126 446.782 920.987 577.911C948.849 709.04 981.086 505 1026.87 585.495" stroke="#E16372"/>
<path d="M7.02365 329.486C5.10286 254.694 96.4593 379.001 197.37 340.075C298.281 301.149 347.935 347.168 260.964 441.228C175.776 542.239 643.142 645.506 711.44 498.515C779.737 351.525 892.885 452.436 920.964 583.505C949.043 714.575 981.479 507.169 1026.75 589.743" stroke="#E16372"/>
<path d="M6.66467 332.532C4.9617 257.561 96.7983 383.962 198.214 344.866C299.63 305.769 349.081 352.343 260.942 447.066C174.486 548.354 646.11 649.106 712.724 502.393C779.338 355.68 892.645 458.095 920.942 589.106C949.239 720.116 981.873 509.344 1026.63 593.997" stroke="#E16372"/>
<path d="M6.3065 335.583C4.82135 260.434 97.1382 388.929 199.059 349.662C300.98 310.395 350.227 357.523 260.92 452.909C173.198 554.474 649.079 652.711 714.009 506.276C778.94 359.84 892.406 463.76 920.92 594.711C949.435 725.662 982.267 511.523 1026.5 598.256" stroke="#E16372"/>
<path d="M5.94887 338.639C4.68154 263.313 97.4786 393.902 199.904 354.464C302.33 315.025 351.375 362.708 260.899 458.758C171.909 560.6 652.048 656.323 715.295 510.164C778.543 364.006 892.167 469.431 920.899 600.322C949.632 731.214 982.662 513.709 1026.38 602.52" stroke="#E16372"/>
<path d="M5.59227 341.701C4.54276 266.196 97.82 398.879 200.751 359.27C303.681 319.661 352.523 367.898 260.879 464.612C170.622 566.731 655.018 659.938 716.582 514.057C778.147 368.176 891.929 475.106 920.879 605.938C949.83 736.77 983.058 515.899 1026.27 606.79" stroke="#E16372"/>
<path d="M5.23645 344.767C4.40477 269.084 98.1622 403.861 201.598 364.082C305.033 324.302 353.672 373.093 260.86 470.47C169.335 572.867 657.989 663.559 717.87 517.955C777.751 372.351 891.692 480.786 920.86 611.559C950.029 742.332 983.454 518.094 1026.15 611.064" stroke="#E16372"/>
<path d="M4.8814 347.838C4.26754 271.977 98.5052 408.848 202.446 368.897C306.386 328.947 354.822 378.293 260.842 476.333C168.05 579.007 660.961 667.185 719.159 521.858C777.357 376.531 891.456 486.471 920.842 617.185C950.228 747.898 983.852 520.293 1026.03 615.343" stroke="#E16372"/>
<path d="M4.52712 350.914C4.13108 274.874 98.8489 413.84 203.294 373.718C307.74 333.597 355.973 383.497 260.824 482.201C166.765 585.152 663.933 670.815 720.448 525.765C776.963 380.716 891.22 492.161 920.824 622.815C950.428 753.469 984.25 522.498 1025.91 619.627" stroke="#E16372"/>
<path d="M4.17359 353.993C3.99537 277.776 99.1934 418.835 204.144 378.543C309.094 338.251 357.124 388.706 260.807 488.073C165.481 591.301 666.906 674.449 721.738 529.677C776.57 384.904 890.985 497.854 920.807 628.449C950.629 759.043 984.649 524.706 1025.8 623.914" stroke="#E16372"/>
<path d="M3.82056 357.077C3.86016 280.681 99.5384 423.835 204.994 383.372C310.449 342.909 358.276 393.919 260.791 493.949C164.197 597.454 669.88 678.087 723.029 533.592C776.177 389.097 890.751 503.552 920.791 634.087C950.83 764.623 985.048 526.919 1025.68 628.206" stroke="#E16372"/>
<path d="M3.46802 360.166C3.72544 283.591 99.8839 428.839 205.844 388.205C311.805 347.571 359.428 399.135 260.775 499.829C162.914 603.612 672.854 681.73 724.32 537.512C775.785 393.294 890.518 509.254 920.775 639.73C951.032 770.206 985.448 529.136 1025.57 632.502" stroke="#E16372"/>
<path d="M3.11548 363.258C3.59073 286.505 100.229 433.847 206.695 393.042C313.16 352.238 360.581 404.356 260.759 505.713C161.63 609.773 675.828 685.376 725.611 541.436C775.393 397.495 890.284 514.96 920.759 645.376C951.234 775.793 985.848 531.357 1025.45 636.802" stroke="#E16372"/>
<path d="M2.76294 366.353C3.45601 289.423 100.575 438.858 207.545 397.883C314.515 356.908 361.733 409.58 260.743 511.601C160.347 615.938 678.803 689.027 726.902 545.363C775.001 401.7 890.05 520.669 920.743 651.026C951.436 781.384 986.248 533.581 1025.34 641.106" stroke="#E16372"/>
<path d="M2.4104 369.453C3.32129 292.344 100.92 443.873 208.396 402.727C315.871 361.581 362.886 414.809 260.727 517.492C159.064 622.107 681.777 692.68 728.193 549.294C774.608 405.908 889.816 526.383 920.727 656.68C951.638 786.978 986.648 535.809 1025.22 645.413" stroke="#E16372"/>
<path d="M2.05786 372.555C3.18657 295.268 101.266 448.892 209.246 407.575C317.226 366.258 364.038 420.04 260.711 523.387C157.781 628.279 684.751 696.338 729.484 553.229C774.216 410.12 889.583 532.099 920.711 662.338C951.84 792.576 987.048 538.041 1025.11 649.724" stroke="#E16372"/>
<path d="M1.70508 375.661C3.05161 298.196 101.611 453.914 210.096 412.426C318.581 370.939 365.19 425.275 260.695 529.285C156.497 634.454 687.725 699.998 730.774 557.166C773.824 414.335 889.349 537.819 920.695 667.998C952.042 798.177 987.448 540.275 1024.99 654.038" stroke="#E16372"/>
<path d="M1.35254 378.771C2.9169 301.128 101.956 458.939 210.947 417.281C319.937 375.623 366.343 430.513 260.679 535.187C155.214 640.633 690.699 703.662 732.065 561.108C773.432 418.553 889.115 543.543 920.679 673.662C952.244 803.782 987.848 542.514 1024.88 658.355" stroke="#E16372"/>
<path d="M1 381.884C2.78218 304.062 102.302 463.968 211.797 422.139C321.292 380.309 367.495 435.754 260.663 541.092C153.931 646.815 693.673 707.329 733.356 565.052C773.04 422.775 888.881 549.269 920.663 679.329C952.446 809.389 988.248 544.755 1024.76 662.676" stroke="#E16372"/>
</svg>
