<svg width="1293" height="949" viewBox="0 0 1293 949" fill="none" xmlns="http://www.w3.org/2000/svg">
<path d="M48.6992 77.6939C-2.91295 -24.2012 479.661 -6.80434 474.5 55.3267C469.338 117.458 514.987 336.616 607.889 262.059C700.791 187.502 987.239 165.134 1013.04 262.059C1038.85 358.984 1351.1 510.584 1281.43 664.669" stroke="#EA9D9D"/>
<path d="M1.12607 320.059C-4.03515 255.443 150.804 255.443 184.349 320.059C217.894 384.675 109.509 454.262 184.349 511.423C259.19 568.584 638.539 538.761 785.631 648.112C932.723 757.462 852.724 759.948 801.115 881.725C749.506 1003.5 1061.76 824.564 1077.24 948.827" stroke="#EA9D9D"/>
<path d="M42.6602 58.9208C22.8186 17.8119 106.68 0.980202 194.066 1.00002C281.452 1.01983 372.205 17.4159 370.799 42.6237C367.412 92.584 382.205 318.089 454.621 259.554C527.036 201.02 746.225 183.218 765.631 261.416C785.036 339.614 1027.04 458.98 973.69 582.743" stroke="#EA9D9D"/>
<path d="M42.2205 60.5278C22.5373 19.31 106.76 2.64663 193.532 3.18625C280.305 3.72587 369.31 20.5179 368.498 45.9337C365.725 95.8544 383.31 318.864 456.141 261.795C528.973 204.726 745.35 187.122 764.161 265.518C782.973 343.914 1024.97 460.647 972.28 584.171" stroke="#EA9D9D"/>
<path d="M41.7814 62.157C22.2566 20.8303 106.841 4.33526 192.999 5.39468C279.158 6.45409 366.415 23.6422 366.197 49.2659C364.039 99.147 384.415 319.662 457.663 264.058C530.91 208.454 744.475 191.048 762.692 269.642C780.91 348.236 1022.91 462.335 970.871 585.622" stroke="#EA9D9D"/>
<path d="M41.3428 63.807C21.9765 22.3714 106.922 6.04465 192.467 7.62387C278.011 9.20309 363.521 26.7872 363.897 52.6189C362.353 102.46 385.521 320.48 459.184 266.342C532.847 212.203 743.601 194.995 761.224 273.787C778.848 352.579 1020.85 464.045 969.462 587.094" stroke="#EA9D9D"/>
<path d="M40.9048 65.4772C21.6969 23.9326 107.004 7.77424 191.935 9.87326C276.865 11.9723 360.628 29.9525 361.598 55.992C360.667 105.794 386.628 321.319 460.707 268.646C534.786 215.972 742.727 198.962 759.756 277.952C776.786 356.943 1018.79 465.774 968.053 588.586" stroke="#EA9D9D"/>
<path d="M40.4676 67.1657C21.4181 25.5122 107.087 9.52212 191.403 12.1409C275.72 14.7598 357.735 33.136 359.299 59.3835C358.982 109.146 387.735 322.176 462.23 270.968C536.725 219.76 741.854 202.948 758.29 282.136C774.725 361.324 1016.72 467.522 966.646 590.096" stroke="#EA9D9D"/>
<path d="M40.0307 68.8716C21.1396 27.1092 107.17 11.2875 190.872 14.4261C274.575 17.5647 354.843 36.337 357.001 62.7924C357.298 112.515 388.843 323.05 463.753 273.307C538.664 223.565 740.982 206.951 756.823 286.337C772.664 365.723 1014.66 469.287 965.239 591.624" stroke="#EA9D9D"/>
<path d="M39.5944 70.594C20.8617 28.7227 107.253 13.0693 190.342 16.7277C273.431 20.3861 351.951 39.5544 354.703 66.2177C355.614 115.901 389.951 323.941 465.278 275.663C540.604 227.386 740.11 210.97 755.357 290.554C770.604 370.139 1012.6 471.069 963.832 593.168" stroke="#EA9D9D"/>
<path d="M39.1586 72.3319C20.5843 30.3517 107.337 14.8666 189.812 19.0449C272.287 23.2231 349.059 42.7874 352.406 69.6587C353.931 119.302 391.06 324.847 466.802 278.035C542.544 231.223 739.238 215.005 753.891 294.787C768.545 374.57 1010.54 472.867 962.426 594.728" stroke="#EA9D9D"/>
<path d="M38.7233 74.0846C20.3075 31.9955 107.422 16.6787 189.283 21.3768C271.144 26.0748 346.169 46.0352 350.109 73.1143C352.248 122.718 392.169 325.768 468.327 280.421C544.485 235.075 738.367 219.055 752.426 299.035C766.486 379.015 1008.49 474.679 961.021 596.302" stroke="#EA9D9D"/>
<path d="M38.2886 75.8515C20.0312 33.6535 107.507 18.505 188.754 23.7229C270.001 28.9407 343.279 49.2971 347.813 76.5842C350.566 126.148 393.279 326.703 469.853 282.822C546.427 238.941 737.497 223.119 750.962 303.297C764.427 383.475 1006.43 476.505 959.615 597.891" stroke="#EA9D9D"/>
<path d="M37.8545 77.6314C19.7555 35.3245 107.592 20.3444 188.226 26.082C268.859 31.8196 340.389 52.5721 345.518 80.0671C348.884 129.592 394.39 327.651 471.379 285.235C548.369 242.82 736.627 227.196 749.498 307.572C762.369 387.948 1004.37 478.344 958.211 599.493" stroke="#EA9D9D"/>
<path d="M37.4208 79.4239C19.4802 37.0081 107.679 22.1963 187.698 28.4537C267.718 34.7111 337.5 55.8596 343.223 83.5625C347.203 133.048 395.501 328.612 472.906 287.662C550.311 246.711 735.758 231.285 748.035 311.86C760.312 392.434 1002.31 480.196 956.807 601.107" stroke="#EA9D9D"/>
<path d="M36.9877 81.2284C19.2056 38.7037 107.765 24.0601 187.171 30.8374C266.577 37.6146 334.611 59.1591 340.928 87.07C345.523 136.515 396.612 329.585 474.433 290.1C552.255 250.615 734.889 235.387 746.572 316.159C758.255 396.931 1000.26 482.06 955.404 602.733" stroke="#EA9D9D"/>
<path d="M36.5552 83.0443C18.9314 40.4106 107.853 25.9354 186.644 33.2325C265.436 40.5295 331.723 62.4701 338.634 90.5888C343.842 139.995 397.724 330.569 475.961 292.549C554.198 254.529 734.021 239.5 745.11 320.47C756.199 401.44 998.199 483.935 954.001 604.371" stroke="#EA9D9D"/>
<path d="M36.1231 84.8711C18.6578 42.1285 107.94 27.8216 186.118 35.6384C264.296 43.4553 328.836 65.7919 336.341 94.1186C342.163 143.485 398.837 331.564 477.489 295.01C556.142 258.455 733.153 243.624 743.648 324.792C754.143 405.96 996.143 485.822 952.599 606.02" stroke="#EA9D9D"/>
<path d="M35.6919 86.7085C18.385 43.857 108.029 29.7184 185.593 38.055C263.157 46.3917 325.949 69.1243 334.048 97.659C340.484 146.986 399.95 332.57 479.019 297.481C558.087 262.392 732.286 247.758 742.187 329.124C752.088 410.491 994.088 487.718 951.197 607.679" stroke="#EA9D9D"/>
<path d="M35.2609 88.5555C18.1124 45.5951 108.118 31.6249 185.068 40.4813C262.018 49.3377 323.063 72.4665 331.756 101.209C338.806 150.496 401.063 333.585 480.548 299.961C560.033 266.338 731.419 251.902 740.726 333.466C750.033 415.031 992.033 489.625 949.796 609.348" stroke="#EA9D9D"/>
<path d="M34.8305 90.4121C17.8404 47.3428 108.207 33.5409 184.543 42.9171C260.88 52.2933 320.177 75.8181 329.464 104.769C337.128 154.016 402.178 334.61 482.078 302.452C561.978 270.293 730.553 256.056 739.266 337.818C747.979 419.58 989.979 491.541 948.395 611.026" stroke="#EA9D9D"/>
<path d="M34.4005 92.278C17.5689 49.0998 108.297 35.4661 184.019 45.3622C259.742 55.2582 317.291 79.179 327.173 108.337C335.45 157.545 403.292 335.644 483.608 304.951C563.925 274.258 729.688 260.219 737.807 342.179C745.926 424.139 987.926 493.466 946.995 612.714" stroke="#EA9D9D"/>
<path d="M33.9711 94.1523C17.2979 50.8652 108.387 37.3999 183.496 47.8157C258.604 58.2315 314.406 82.5484 324.882 111.915C333.773 161.083 404.407 336.687 485.139 307.459C565.871 278.232 728.823 264.39 736.347 346.548C743.872 428.707 985.872 495.4 945.595 614.41" stroke="#EA9D9D"/>
<path d="M33.5422 96.035C17.0274 52.6389 108.478 39.342 182.973 50.2776C257.468 61.2132 311.522 85.9261 322.592 115.5C332.097 164.629 405.523 337.738 486.671 309.976C567.819 282.213 727.958 268.57 734.889 350.926C741.82 433.283 983.82 497.342 944.196 616.114" stroke="#EA9D9D"/>
<path d="M33.1139 97.9257C16.7574 54.4207 108.57 41.292 182.451 52.7475C256.331 64.2029 308.638 89.3118 320.302 119.094C330.421 168.183 406.639 338.797 488.203 312.5C569.767 286.203 727.094 272.757 733.431 355.312C739.768 437.866 981.768 499.292 942.797 617.827" stroke="#EA9D9D"/>
<path d="M32.686 99.824C16.488 56.2101 108.662 43.2498 181.929 55.225C255.195 67.2003 305.755 92.7052 318.013 122.695C328.746 171.745 407.756 339.864 489.735 315.032C571.715 290.2 726.23 276.953 731.973 359.705C737.716 442.458 979.716 501.25 941.399 619.547" stroke="#EA9D9D"/>
<path d="M32.2586 101.73C16.219 58.007 108.754 45.2149 181.407 57.71C254.06 70.205 302.872 96.106 315.724 126.304C327.071 175.314 408.873 340.938 491.269 317.571C573.664 294.205 725.367 281.155 730.516 364.106C735.665 447.056 977.665 503.215 940.001 621.274" stroke="#EA9D9D"/>
<path d="M31.8318 103.643C15.9506 59.8109 108.847 47.1872 180.886 60.202C252.925 73.2168 299.99 99.5138 313.436 129.92C325.397 178.89 409.991 342.019 492.802 320.118C575.613 298.217 724.505 285.365 729.06 368.514C733.614 451.662 975.614 505.187 938.604 623.009" stroke="#EA9D9D"/>
<path d="M31.4055 105.562C15.6827 61.6219 108.941 49.1665 180.366 62.7011C251.791 76.2357 297.108 102.929 311.148 133.543C323.723 182.473 411.109 343.107 494.336 322.671C577.563 302.236 723.643 289.582 727.604 372.929C731.564 456.275 973.564 507.166 937.208 624.751" stroke="#EA9D9D"/>
<path d="M30.9796 107.489C15.4153 63.4392 109.035 51.1521 179.846 65.2065C250.657 79.261 294.227 106.35 308.861 137.172C322.049 186.063 412.228 344.202 495.871 325.231C579.513 306.261 722.781 293.806 726.148 377.35C729.515 460.895 971.515 509.152 935.811 626.499" stroke="#EA9D9D"/>
<path d="M30.5545 109.421C15.1486 65.2628 109.129 53.144 179.327 67.7183C249.524 82.2925 291.346 109.778 306.574 140.807C320.377 189.659 413.347 345.302 497.406 327.797C581.465 310.292 721.921 298.035 724.693 381.778C727.466 465.52 969.466 511.144 934.416 628.253" stroke="#EA9D9D"/>
<path d="M30.1297 111.36C14.8822 67.0925 109.224 55.1421 178.808 70.2361C248.391 85.3302 288.466 113.211 304.288 144.449C318.705 193.261 414.467 346.409 498.942 330.37C583.416 314.33 721.06 302.271 723.239 386.211C725.417 470.152 967.417 513.142 933.021 630.013" stroke="#EA9D9D"/>
<path d="M29.7054 113.304C14.6163 68.9282 109.32 57.146 178.29 72.7599C247.259 88.3737 285.586 116.651 302.002 148.096C317.033 196.869 415.587 347.522 500.478 332.948C585.368 318.374 720.2 306.512 721.785 390.651C723.369 474.79 965.369 515.146 931.626 631.78" stroke="#EA9D9D"/>
<path d="M29.2815 115.255C14.3508 70.7695 109.416 59.1557 177.772 75.2893C246.127 91.4229 282.707 120.096 299.717 151.75C315.361 200.482 416.708 348.641 502.014 335.532C587.32 322.423 719.34 310.76 720.331 395.096C721.322 479.433 963.322 517.156 930.232 633.552" stroke="#EA9D9D"/>
<path d="M28.8582 117.211C14.0859 72.6165 109.512 61.171 177.254 77.8244C244.996 94.4779 279.828 123.547 297.432 155.409C313.69 204.102 417.829 349.765 503.551 338.121C589.273 326.478 718.481 315.013 718.878 399.547C719.275 484.082 961.275 519.171 928.838 635.329" stroke="#EA9D9D"/>
<path d="M28.4353 119.172C13.8214 74.4686 109.609 63.1914 176.737 80.3646C243.865 97.5379 276.949 127.003 295.148 159.073C312.02 207.726 418.951 350.894 505.089 340.716C591.226 330.538 717.623 319.271 717.425 404.003C717.228 488.736 959.228 521.191 927.445 637.112" stroke="#EA9D9D"/>
<path d="M28.0129 121.138C13.5575 76.3257 109.707 65.2169 176.221 82.9099C242.735 100.603 274.072 130.464 292.864 162.742C310.35 211.355 420.073 352.029 506.627 343.316C593.18 334.603 716.765 323.534 715.973 408.464C715.182 493.395 957.182 523.217 926.053 638.9" stroke="#EA9D9D"/>
<path d="M27.591 123.109C13.294 78.1879 109.805 67.2473 175.705 85.4602C241.605 103.673 271.194 133.93 290.581 166.416C308.681 214.99 421.196 353.168 508.165 345.921C595.135 338.673 715.907 327.802 714.522 412.93C713.136 498.059 955.136 525.247 924.66 640.693" stroke="#EA9D9D"/>
<path d="M27.1696 125.085C13.031 80.0548 109.903 69.2826 175.189 88.0152C240.476 106.748 268.317 137.401 288.298 170.094C307.012 218.629 422.319 354.312 509.704 348.53C597.089 342.748 715.05 332.075 713.071 417.401C711.091 502.728 953.091 527.283 923.269 642.491" stroke="#EA9D9D"/>
<path d="M26.7487 127.065C12.7685 81.9263 110.002 71.3225 174.674 90.5749C239.347 109.827 265.441 140.877 286.016 173.778C305.343 222.273 423.443 355.461 511.244 351.144C599.045 346.827 714.194 336.352 711.62 421.877C709.046 507.402 951.046 529.322 921.877 644.293" stroke="#EA9D9D"/>
<path d="M26.3282 129.05C12.5065 83.8026 110.101 73.367 174.16 93.1393C238.218 112.912 262.565 144.357 283.734 177.466C303.676 225.921 424.567 356.615 512.784 353.763C601 350.911 713.337 340.634 710.17 426.357C707.002 512.08 949.002 531.367 920.487 646.1" stroke="#EA9D9D"/>
<path d="M25.9085 131.039C12.2451 85.683 110.201 75.4157 173.646 95.7078C237.091 116 259.69 147.841 281.453 181.158C302.008 229.574 425.692 357.772 514.324 356.386C602.957 355 712.482 344.921 708.72 430.841C704.959 516.762 946.959 533.416 919.097 647.911" stroke="#EA9D9D"/>
<path d="M25.489 133.033C11.984 87.5676 110.302 77.4686 173.133 98.2805C235.963 119.092 256.815 151.33 279.172 184.855C300.341 233.231 426.817 358.934 515.865 359.013C604.914 359.092 711.627 349.211 707.271 435.33C702.916 521.449 944.916 535.469 917.707 649.726" stroke="#EA9D9D"/>
<path d="M25.07 135.03C11.7234 89.4562 110.403 79.5256 172.619 100.857C234.836 122.189 253.94 154.823 276.892 188.555C298.675 236.892 427.942 360.1 517.407 361.644C606.871 363.189 710.772 353.506 705.822 439.823C700.873 526.139 942.873 537.526 916.318 651.545" stroke="#EA9D9D"/>
<path d="M24.6514 137.032C11.4633 91.3489 110.504 81.5865 172.107 103.438C233.71 125.289 251.066 158.319 274.612 192.26C297.009 240.557 429.068 361.27 518.948 364.28C608.828 367.289 709.918 357.804 704.374 444.319C698.83 530.834 940.83 539.586 914.929 653.369" stroke="#EA9D9D"/>
<path d="M24.2333 139.037C11.2036 93.2453 110.606 83.6513 171.595 106.023C232.584 128.394 248.193 161.82 272.332 195.968C295.343 244.225 430.195 362.443 520.491 366.919C610.787 371.394 709.064 362.107 702.926 448.82C696.789 535.532 938.789 541.651 913.54 655.196" stroke="#EA9D9D"/>
<path d="M23.8157 141.047C10.9444 95.1457 110.708 85.72 171.083 108.611C231.458 131.502 245.32 165.324 270.053 199.68C293.678 247.898 431.322 363.621 522.033 369.562C612.745 375.502 708.211 366.413 701.479 453.324C694.747 540.235 936.747 543.72 912.152 657.027" stroke="#EA9D9D"/>
<path d="M23.3985 143.059C10.6856 97.0495 110.81 87.7921 170.572 111.203C230.333 134.614 242.447 168.832 267.775 203.396C292.013 251.574 432.449 364.802 523.577 372.208C614.704 379.614 707.358 370.723 700.032 457.832C692.706 544.941 934.706 545.792 910.765 658.861" stroke="#EA9D9D"/>
<path d="M22.9818 145.076C10.4273 98.9568 110.914 89.8678 170.061 113.798C229.208 137.729 239.575 172.343 265.497 207.115C290.349 255.254 433.577 365.987 525.12 374.858C616.664 383.729 706.506 375.036 698.586 462.343C690.666 549.65 932.666 547.868 909.378 660.699" stroke="#EA9D9D"/>
<path d="M22.5655 147.095C10.1695 100.868 111.017 91.9468 169.551 116.397C228.084 140.848 236.703 175.858 263.219 210.838C288.685 258.937 434.705 367.175 526.664 377.511C618.624 387.848 705.654 379.353 697.14 466.858C688.626 554.363 930.626 549.947 907.991 662.541" stroke="#EA9D9D"/>
<path d="M22.1497 149.118C9.91206 102.782 111.121 94.0291 169.041 118.999C226.961 143.97 233.832 179.376 260.942 214.564C287.022 262.623 435.834 368.366 528.209 380.168C620.584 391.97 704.802 383.673 695.694 471.376C686.586 559.079 928.586 552.029 906.605 664.386" stroke="#EA9D9D"/>
<path d="M21.7343 151.144C9.65512 104.699 111.226 96.1147 168.531 121.605C225.837 147.095 230.961 182.897 258.665 218.293C285.359 266.313 436.963 369.56 529.754 382.828C622.545 396.095 703.951 387.996 694.249 475.897C684.547 563.798 926.547 554.115 905.219 666.234" stroke="#EA9D9D"/>
<path d="M21.3197 153.174C9.39888 106.619 111.331 98.2034 168.023 124.213C224.715 150.223 228.091 186.421 256.389 222.025C283.697 270.005 438.093 370.758 531.3 385.49C624.506 400.223 703.101 392.322 692.805 480.421C682.509 568.52 924.509 556.203 903.835 668.085" stroke="#EA9D9D"/>
<path d="M20.9052 155.206C9.14283 108.543 111.436 100.295 167.514 126.825C223.592 153.354 225.221 189.948 254.113 225.76C282.035 273.701 439.223 371.958 532.846 388.156C626.468 404.354 702.251 396.651 691.361 484.949C680.471 573.246 922.471 558.295 902.45 669.939" stroke="#EA9D9D"/>
<path d="M20.4912 157.241C8.88723 110.469 111.542 102.39 167.006 129.439C222.47 156.489 222.351 193.479 251.838 229.499C280.373 277.4 440.354 373.162 534.392 390.825C628.43 408.489 701.401 400.984 689.917 489.479C678.433 577.974 920.433 560.39 901.065 671.796" stroke="#EA9D9D"/>
<path d="M20.0776 159.28C8.63207 112.398 111.648 104.488 166.498 132.057C221.349 159.626 219.482 197.012 249.563 233.24C278.712 281.101 441.485 374.369 535.939 393.497C630.393 412.626 700.552 405.319 688.474 494.012C676.396 582.705 918.396 562.488 899.682 673.656" stroke="#EA9D9D"/>
<path d="M19.6645 161.321C8.37735 114.331 111.755 106.588 165.991 134.677C220.228 162.766 216.614 200.548 247.288 236.984C277.052 284.806 442.616 375.578 537.486 396.172C632.356 416.766 699.703 409.657 687.031 498.548C674.359 587.439 916.359 564.588 898.298 675.519" stroke="#EA9D9D"/>
<path d="M19.2518 163.364C8.12307 116.265 111.862 108.691 165.484 137.3C219.107 165.909 213.746 204.087 245.014 240.731C275.392 288.513 443.748 376.79 539.034 398.85C634.32 420.909 698.855 413.998 685.588 503.087C672.322 592.176 914.322 566.691 896.915 677.384" stroke="#EA9D9D"/>
<path d="M18.8395 165.411C7.86922 118.203 111.969 110.797 164.978 139.926C217.987 169.054 210.878 207.628 242.74 244.48C273.732 292.223 444.88 378.005 540.582 401.53C636.284 425.054 698.007 418.341 684.146 507.629C670.286 596.916 912.286 568.797 895.533 679.252" stroke="#EA9D9D"/>
<path d="M18.4277 167.46C7.61581 120.143 112.077 112.905 164.472 142.554C216.867 172.202 208.011 211.173 240.467 248.232C272.072 295.935 446.013 379.222 542.131 404.212C638.248 429.202 697.159 422.687 682.705 512.173C668.251 601.658 910.251 570.905 894.15 681.123" stroke="#EA9D9D"/>
<path d="M18.0163 169.511C7.36283 122.085 112.186 115.016 163.967 145.184C215.748 175.353 205.144 214.719 238.194 251.986C270.414 299.65 447.146 380.442 543.68 406.897C640.213 433.353 696.312 427.036 681.264 516.719C666.216 606.402 908.216 573.016 892.769 682.996" stroke="#EA9D9D"/>
<path d="M17.6053 171.565C7.11027 124.031 112.295 117.13 163.462 147.818C214.629 178.506 202.277 218.268 235.922 255.744C268.755 303.367 448.28 381.665 545.229 409.585C642.178 437.506 695.465 431.387 679.823 521.268C664.181 611.15 906.181 575.13 891.388 684.872" stroke="#EA9D9D"/>
<path d="M17.1948 173.622C6.85815 125.978 112.404 119.246 162.957 150.454C213.51 181.661 199.411 221.82 233.65 259.503C267.097 307.087 449.414 382.889 546.779 412.275C644.144 441.661 694.619 435.741 678.383 525.82C662.147 615.899 904.147 577.246 890.007 686.751" stroke="#EA9D9D"/>
<path d="M16.7849 175.681C6.60669 127.928 112.514 121.364 162.453 153.091C212.392 184.819 196.546 225.374 231.379 263.265C265.44 310.809 450.549 384.116 548.329 414.968C646.11 445.819 693.774 440.096 676.943 530.374C660.113 620.651 902.113 579.364 888.626 688.631" stroke="#EA9D9D"/>
<path d="M16.3752 177.742C6.3554 129.88 112.624 123.484 161.949 155.732C211.275 187.979 193.681 228.93 229.108 267.029C263.782 314.534 451.684 385.346 549.88 417.662C648.077 449.979 692.928 444.454 675.504 534.93C658.08 625.405 900.08 581.484 887.246 690.514" stroke="#EA9D9D"/>
<path d="M15.9659 179.805C6.10454 131.834 112.735 125.607 161.446 158.374C210.158 191.141 190.816 232.488 226.837 270.795C262.126 318.26 452.819 386.577 551.431 420.359C650.044 454.141 692.083 448.815 674.065 539.488C656.047 630.161 898.047 583.607 885.867 692.399" stroke="#EA9D9D"/>
<path d="M15.5571 181.87C5.85409 133.791 112.846 127.732 160.943 161.019C209.041 194.306 187.952 236.048 224.567 274.563C260.469 321.989 453.955 387.811 552.983 423.058C652.011 458.306 691.239 453.177 672.626 544.048C654.014 634.92 896.014 585.732 884.488 694.286" stroke="#EA9D9D"/>
<path d="M15.1486 183.938C5.60406 135.75 112.957 129.859 160.441 163.666C207.924 197.473 185.088 239.611 222.297 278.334C258.813 325.72 455.091 389.047 554.535 425.76C653.979 462.473 690.395 457.542 671.188 548.611C651.982 639.681 893.982 587.859 883.109 696.176" stroke="#EA9D9D"/>
<path d="M14.7406 186.008C5.35444 137.711 113.069 131.988 159.939 166.315C206.808 200.641 182.224 243.176 220.028 282.107C257.158 329.453 456.227 390.285 556.087 428.463C655.947 466.641 689.551 461.909 669.75 553.176C649.95 644.443 891.95 589.988 881.731 698.067" stroke="#EA9D9D"/>
<path d="M14.3329 188.079C5.10523 139.673 113.181 134.119 159.437 168.965C205.693 203.812 179.361 246.743 217.759 285.881C255.503 333.188 457.364 391.525 557.64 431.168C657.915 470.812 688.708 466.277 668.313 557.743C647.919 649.208 889.919 592.119 880.353 699.961" stroke="#EA9D9D"/>
<path d="M13.9257 190.153C4.85642 141.638 113.294 136.252 158.936 171.618C204.578 206.985 176.498 250.311 215.49 289.658C253.848 336.925 458.502 392.767 559.193 433.876C659.884 474.985 687.865 470.648 666.876 562.311C645.888 653.975 887.888 594.252 878.975 701.856" stroke="#EA9D9D"/>
<path d="M13.5189 192.228C4.60803 143.605 113.407 138.387 158.435 174.273C203.463 210.159 173.636 253.882 213.222 293.436C252.194 340.664 459.639 394.011 560.747 436.585C661.854 479.159 687.022 475.021 665.44 566.882C643.857 658.743 885.857 596.387 877.598 703.753" stroke="#EA9D9D"/>
<path d="M13.1125 194.306C4.36003 145.573 113.52 140.524 157.934 176.93C202.349 213.336 170.774 257.454 210.954 297.217C250.54 344.405 460.777 395.257 562.301 439.296C663.824 483.336 686.18 479.395 664.004 571.454C641.827 663.514 883.827 598.524 876.221 705.653" stroke="#EA9D9D"/>
<path d="M12.7065 196.386C4.11244 147.544 113.634 142.663 157.434 179.588C201.235 216.514 167.913 261.029 208.687 300.999C248.886 348.148 461.916 396.504 563.855 442.009C665.794 487.514 685.338 483.772 662.568 576.029C639.797 668.287 881.797 600.663 874.845 707.554" stroke="#EA9D9D"/>
<path d="M12.3011 198.467C3.86549 149.516 113.748 144.803 156.935 182.249C200.121 219.694 165.052 264.605 206.42 304.783C247.233 351.892 463.055 397.754 565.41 444.724C667.765 491.694 684.497 488.15 661.133 580.605C637.768 673.061 879.768 602.803 873.469 709.457" stroke="#EA9D9D"/>
<path d="M11.8959 200.55C3.61869 151.49 113.863 146.946 156.436 184.911C199.008 222.876 162.191 268.183 204.153 308.569C245.581 355.639 464.195 399.005 566.965 447.441C669.736 495.876 683.657 492.53 659.698 585.183C635.739 677.837 877.739 604.946 872.094 711.362" stroke="#EA9D9D"/>
<path d="M11.4911 202.634C3.37229 153.466 113.978 149.09 155.937 187.575C197.895 226.06 159.331 271.763 201.887 312.357C243.928 359.387 465.334 400.258 568.521 450.159C671.707 500.06 682.816 496.911 658.263 589.763C633.711 682.614 875.711 607.09 870.719 713.268" stroke="#EA9D9D"/>
<path d="M11.0867 204.72C3.12628 155.443 114.093 151.235 155.438 190.24C196.783 229.245 156.471 275.344 199.621 316.146C242.276 363.136 466.474 401.513 570.077 452.879C673.679 504.245 681.976 501.295 656.829 594.344C631.682 687.394 873.682 609.235 869.344 715.176" stroke="#EA9D9D"/>
<path d="M10.6826 206.808C2.88066 157.422 114.209 153.383 154.94 192.907C195.671 232.432 153.612 278.927 197.356 319.937C240.625 366.888 467.615 402.769 571.633 455.601C675.651 508.432 681.136 505.68 655.395 598.927C629.655 692.175 871.655 611.383 867.97 717.086" stroke="#EA9D9D"/>
<path d="M10.279 208.898C2.63542 159.403 114.325 155.532 154.442 195.576C194.559 235.621 150.753 282.512 195.091 323.73C238.974 370.641 468.756 404.027 573.19 458.324C677.624 512.621 680.297 510.066 653.962 603.512C627.627 696.957 869.627 613.532 866.596 718.997" stroke="#EA9D9D"/>
<path d="M9.87573 210.989C2.39058 161.385 114.442 157.683 153.945 198.247C193.448 238.811 147.894 286.098 192.826 327.524C237.323 374.395 469.897 405.287 574.747 461.049C679.597 516.811 679.458 514.455 652.529 608.098C625.6 701.742 867.6 615.683 865.222 720.91" stroke="#EA9D9D"/>
<path d="M9.47285 213.082C2.14611 163.369 114.559 159.835 153.448 200.919C192.337 242.003 145.035 289.686 190.562 331.32C235.673 378.151 471.039 406.548 576.304 463.775C681.57 521.003 678.619 518.845 651.097 612.686C623.574 706.528 865.574 617.835 863.849 722.825" stroke="#EA9D9D"/>
<path d="M9.07035 215.176C1.90203 165.355 114.676 161.988 152.952 203.592C191.227 245.196 142.177 293.275 188.298 335.117C234.023 381.909 472.181 407.81 577.862 466.503C683.544 525.196 677.781 523.236 649.664 617.275C621.547 711.315 863.547 619.988 862.476 724.741" stroke="#EA9D9D"/>
<path d="M8.66823 217.272C1.65833 167.341 114.794 164.143 152.455 206.267C190.117 248.391 139.32 296.866 186.035 338.916C232.373 385.668 473.323 409.074 579.421 469.233C685.518 529.391 676.943 527.629 648.233 621.866C619.522 716.104 861.522 622.143 861.104 726.658" stroke="#EA9D9D"/>
<path d="M8.26649 219.369C1.415 169.33 114.912 166.3 151.96 208.944C189.007 251.587 136.463 300.458 183.771 342.716C230.724 389.429 474.466 410.34 580.979 471.963C687.492 533.587 676.106 532.023 646.801 626.458C617.496 720.894 859.496 624.3 859.732 728.577" stroke="#EA9D9D"/>
<path d="M7.86512 221.468C1.17205 171.319 115.03 168.458 151.464 211.621C187.898 254.785 133.606 304.052 181.509 346.517C229.075 393.191 475.609 411.607 582.538 474.696C689.467 537.785 675.269 536.418 645.37 631.052C615.471 725.686 857.471 626.458 858.36 730.498" stroke="#EA9D9D"/>
<path d="M7.46437 223.568C0.929716 173.311 115.149 170.618 150.969 214.301C186.789 257.984 130.75 307.647 179.247 350.321C227.427 396.954 476.753 412.875 584.098 477.43C691.443 541.984 674.433 540.816 643.94 635.647C613.447 730.479 855.447 628.618 856.989 732.42" stroke="#EA9D9D"/>
<path d="M7.06375 225.669C0.687509 175.303 115.269 172.778 150.475 216.981C185.681 261.184 127.894 311.244 176.985 354.125C225.778 400.719 477.897 414.145 585.658 480.165C693.418 546.184 673.596 545.214 642.509 640.244C611.422 735.273 853.422 630.778 855.618 734.343" stroke="#EA9D9D"/>
<path d="M6.66349 227.772C0.44567 177.297 115.388 174.941 149.98 219.663C184.572 264.386 125.038 314.841 174.723 357.931C224.131 404.485 479.042 415.416 587.218 482.901C695.394 550.386 672.76 549.614 641.079 644.842C609.398 740.069 851.398 632.941 854.248 736.267" stroke="#EA9D9D"/>
<path d="M6.2636 229.876C0.204197 179.292 115.508 177.104 149.486 222.347C183.465 267.589 122.182 318.44 172.462 361.738C222.483 408.253 480.186 416.688 588.778 485.639C697.37 554.589 671.925 554.015 639.65 649.441C607.375 744.866 849.375 635.104 852.877 738.193" stroke="#EA9D9D"/>
<path d="M5.86408 231.982C-0.0369109 181.288 115.628 179.269 148.993 225.031C182.357 270.793 119.327 322.041 170.201 365.546C220.836 412.021 481.331 417.962 590.339 488.378C699.347 558.793 671.09 558.417 638.22 654.041C605.351 749.665 847.351 637.269 851.508 740.12" stroke="#EA9D9D"/>
<path d="M5.46492 234.088C-0.277657 183.286 115.749 181.435 148.5 227.717C181.25 273.999 116.473 325.642 167.94 369.355C219.19 415.791 482.477 419.237 591.9 491.118C701.324 562.999 670.255 562.821 636.792 658.643C603.328 754.464 845.328 639.435 850.138 742.049" stroke="#EA9D9D"/>
<path d="M5.06612 236.196C-0.518043 185.285 115.87 183.602 148.007 230.404C180.143 277.206 113.619 329.246 165.68 373.166C217.543 419.563 483.622 420.513 593.462 493.86C703.302 567.206 669.42 567.226 635.363 663.246C601.306 759.266 843.306 641.602 848.769 743.979" stroke="#EA9D9D"/>
<path d="M4.66767 238.305C-0.75807 187.285 115.991 185.771 147.514 233.092C179.037 280.414 110.765 332.85 163.42 376.978C215.897 423.335 484.769 421.791 595.024 496.602C705.279 571.414 668.586 571.632 633.935 667.85C599.284 764.068 841.284 643.771 847.4 745.909" stroke="#EA9D9D"/>
<path d="M4.26959 240.415C-0.997742 189.287 116.113 187.94 147.022 235.782C177.931 283.623 107.911 336.455 161.161 380.792C214.252 427.109 485.915 423.069 596.586 499.346C707.258 575.623 667.752 576.039 632.507 672.455C597.262 768.871 839.262 645.94 846.032 747.841" stroke="#EA9D9D"/>
<path d="M3.87185 242.527C-1.23706 191.289 116.235 190.111 146.53 238.472C176.825 286.834 105.058 340.061 158.902 384.606C212.607 430.883 487.062 424.349 598.149 502.091C709.236 579.834 666.919 580.448 631.08 677.062C595.24 773.675 837.24 648.111 844.664 749.775" stroke="#EA9D9D"/>
<path d="M3.47447 244.639C-1.47602 193.293 116.358 192.283 146.039 241.164C175.72 290.045 102.205 343.669 156.643 388.422C210.962 434.659 488.209 425.63 599.712 504.837C711.215 584.045 666.086 584.857 629.653 681.669C593.219 778.481 835.219 650.283 843.296 751.709" stroke="#EA9D9D"/>
<path d="M3.07768 246.753C-1.7144 195.298 116.481 194.456 145.548 243.857C174.615 293.258 99.3528 347.278 154.385 392.238C209.317 438.436 489.357 426.912 601.276 507.585C713.194 588.258 665.253 589.268 628.226 686.278C591.199 783.288 833.199 652.456 841.929 753.644" stroke="#EA9D9D"/>
<path d="M2.681 248.868C-1.95266 197.304 116.604 196.631 145.057 246.551C173.511 296.472 96.5006 350.888 152.127 396.056C207.673 442.215 490.505 428.195 602.839 510.333C715.174 592.472 664.421 593.68 626.8 690.888C589.178 788.096 831.178 654.631 840.562 755.581" stroke="#EA9D9D"/>
<path d="M2.28466 250.984C-2.19058 199.311 116.727 198.806 144.567 249.246C172.406 299.687 93.6488 354.499 149.869 399.875C206.029 445.994 491.653 429.479 604.403 513.083C717.154 596.687 663.589 598.093 625.374 695.499C587.158 792.905 829.158 656.806 839.195 757.519" stroke="#EA9D9D"/>
<path d="M1.88867 253.101C-2.42816 201.319 116.851 200.982 144.077 251.942C171.302 302.903 90.7974 358.111 147.611 403.695C204.386 449.774 492.802 430.764 605.968 515.834C719.134 600.903 662.757 602.507 623.948 700.111C585.139 797.715 827.139 658.982 837.829 759.457" stroke="#EA9D9D"/>
<path d="M1.49302 255.219C-2.6654 203.328 116.975 203.16 143.587 254.64C170.199 306.12 87.9462 361.724 145.354 407.516C202.743 453.556 493.951 432.051 607.533 518.585C721.115 605.12 661.926 606.922 622.523 704.724C583.119 802.526 825.119 661.159 836.463 761.397" stroke="#EA9D9D"/>
</svg>
